<?xml version="1.0" standalone="no"?>
<!DOCTYPE svg PUBLIC "-//W3C//DTD SVG 20010904//EN"
 "http://www.w3.org/TR/2001/REC-SVG-20010904/DTD/svg10.dtd">
<svg version="1.0" xmlns="http://www.w3.org/2000/svg"
 width="238.000000pt" height="212.000000pt" viewBox="0 0 238.000000 212.000000"
 preserveAspectRatio="xMidYMid meet">
<metadata>
Created by potrace 1.16, written by Peter Selinger 2001-2019
</metadata>
<g transform="translate(0.000000,212.000000) scale(0.100000,-0.100000)"
fill="#D82C2C" stroke="none">
<path d="M90 2089 c-14 -6 -32 -8 -42 -6 -9 3 -19 -2 -22 -10 -3 -8 -6 -467
-6 -1019 l0 -1004 85 0 85 0 2 938 3 937 995 0 995 0 3 -852 2 -853 -732 -1
c-403 0 -800 -1 -883 -2 l-150 -2 -3 85 c-2 47 0 379 3 739 l7 654 82 -6 c162
-12 387 -72 526 -140 l65 -32 3 -121 3 -122 -35 -21 c-55 -34 -141 -135 -197
-229 -28 -48 -60 -99 -70 -114 -28 -39 -111 -76 -214 -93 -49 -9 -93 -21 -97
-28 -4 -7 -8 -119 -8 -249 l0 -238 805 0 805 0 0 88 c0 48 3 399 7 780 l6 692
-139 0 c-271 -1 -501 -53 -704 -161 l-77 -41 -49 25 c-223 113 -500 177 -765
177 l-119 0 0 -442 c0 -244 -3 -651 -7 -905 l-6 -463 1058 0 1058 0 -6 533
c-4 292 -7 754 -7 1024 l0 492 -1118 0 c-714 0 -1126 -4 -1142 -10z m1834
-844 c-148 -91 -197 -130 -357 -283 -132 -126 -191 -155 -242 -118 -18 13 -18
15 -3 38 10 15 40 33 75 46 73 27 130 74 154 126 64 141 -52 286 -228 286
l-43 0 0 84 c0 93 -3 88 80 133 121 66 308 117 477 131 l98 7 3 -220 c2 -195
1 -221 -14 -230z m-540 -88 c31 -23 12 -53 -43 -72 -124 -41 -191 -118 -191
-221 0 -137 124 -225 273 -194 81 16 146 60 279 187 111 106 215 193 232 193
8 0 8 -372 0 -488 l-7 -92 -633 0 -634 0 0 93 0 93 71 16 c124 30 183 79 269
228 82 141 154 215 244 252 50 21 116 23 140 5z"/>
</g>
</svg>
